<svg width="266" height="271" viewBox="0 0 266 271" fill="none" xmlns="http://www.w3.org/2000/svg">
<path d="M170.308 173.308H200.154V143.462H230V188.231H200.154V203.154H170.308V188.231H140.462V143.462H170.308V173.308ZM36 143.462H125.538V233H36V143.462ZM65.8462 173.308V203.154H95.6923V173.308H65.8462ZM36 39H125.538V128.538H36V39ZM65.8462 68.8462V98.6923H95.6923V68.8462H65.8462ZM140.462 39H230V128.538H140.462V39ZM170.308 68.8462V98.6923H200.154V68.8462H170.308ZM200.154 203.154H230V233H200.154V203.154ZM140.462 203.154H170.308V233H140.462V203.154Z" fill="white"/>
<rect width="266" height="271" fill="#212121" fill-opacity="0.85"/>
</svg>
