<svg width="63" height="63" viewBox="0 0 63 63" fill="none" xmlns="http://www.w3.org/2000/svg">
<g clip-path="url(#clip0_9346_12605)">
<path d="M33.4688 1.96875V13.7812C33.4688 14.8641 32.5828 15.75 31.5 15.75C30.4172 15.75 29.5312 14.8641 29.5312 13.7812V1.96875C29.5312 0.885937 30.4172 0 31.5 0C32.5828 0 33.4688 0.885937 33.4688 1.96875ZM33.4688 49.2188V61.0312C33.4688 62.1141 32.5828 63 31.5 63C30.4172 63 29.5312 62.1141 29.5312 61.0312V49.2188C29.5312 48.1359 30.4172 47.25 31.5 47.25C32.5828 47.25 33.4688 48.1359 33.4688 49.2188ZM0 31.5C0 30.4172 0.885937 29.5312 1.96875 29.5312H13.7812C14.8641 29.5312 15.75 30.4172 15.75 31.5C15.75 32.5828 14.8641 33.4688 13.7812 33.4688H1.96875C0.885937 33.4688 0 32.5828 0 31.5ZM49.2188 29.5312H61.0312C62.1141 29.5312 63 30.4172 63 31.5C63 32.5828 62.1141 33.4688 61.0312 33.4688H49.2188C48.1359 33.4688 47.25 32.5828 47.25 31.5C47.25 30.4172 48.1359 29.5312 49.2188 29.5312ZM53.7715 9.22852C54.5344 9.99141 54.5344 11.2465 53.7715 12.0094L45.4166 20.3643C44.6537 21.1271 43.3986 21.1271 42.6357 20.3643C41.8729 19.6014 41.8729 18.3463 42.6357 17.5834L50.9906 9.22852C51.7535 8.46562 53.0086 8.46562 53.7715 9.22852ZM20.3643 45.4166L12.0094 53.7715C11.2465 54.5344 9.99141 54.5344 9.22852 53.7715C8.46562 53.0086 8.46562 51.7535 9.22852 50.9906L17.5834 42.6357C18.3463 41.8729 19.6014 41.8729 20.3643 42.6357C21.1271 43.3986 21.1271 44.6537 20.3643 45.4166ZM9.22852 9.22852C9.99141 8.46562 11.2465 8.46562 12.0094 9.22852L20.3643 17.5834C21.1271 18.3463 21.1271 19.6014 20.3643 20.3643C19.6014 21.1271 18.3463 21.1271 17.5834 20.3643L9.22852 12.0094C8.46562 11.2465 8.46562 9.99141 9.22852 9.22852ZM45.4166 42.6357L53.7715 50.9906C54.5344 51.7535 54.5344 53.0086 53.7715 53.7715C53.0086 54.5344 51.7535 54.5344 50.9906 53.7715L42.6357 45.4166C41.8729 44.6537 41.8729 43.3986 42.6357 42.6357C43.3986 41.8729 44.6537 41.8729 45.4166 42.6357Z" fill="#E0E0E0"/>
</g>
<defs>
<clipPath id="clip0_9346_12605">
<rect width="63" height="63" fill="white"/>
</clipPath>
</defs>
</svg>
