<?xml version="1.0" encoding="UTF-8" standalone="no"?>
<!-- Uploaded to: SVG Repo, www.svgrepo.com, Generator: SVG Repo Mixer Tools -->

<svg
   height="400"
   width="260"
   version="1.1"
   id="Capa_1"
   viewBox="0 0 59.273824 91.190502"
   xml:space="preserve"
   sodipodi:docname="plug.svg"
   inkscape:version="1.2.2 (b0a8486541, 2022-12-01)"
   xmlns:inkscape="http://www.inkscape.org/namespaces/inkscape"
   xmlns:sodipodi="http://sodipodi.sourceforge.net/DTD/sodipodi-0.dtd"
   xmlns="http://www.w3.org/2000/svg"
   xmlns:svg="http://www.w3.org/2000/svg"><defs
   id="defs7" /><sodipodi:namedview
   id="namedview5"
   pagecolor="#ffffff"
   bordercolor="#666666"
   borderopacity="1.0"
   inkscape:showpageshadow="2"
   inkscape:pageopacity="0.0"
   inkscape:pagecheckerboard="0"
   inkscape:deskcolor="#d1d1d1"
   showgrid="false"
   inkscape:zoom="1.3333433"
   inkscape:cx="170.62372"
   inkscape:cy="195.37354"
   inkscape:window-width="1434"
   inkscape:window-height="931"
   inkscape:window-x="0"
   inkscape:window-y="0"
   inkscape:window-maximized="1"
   inkscape:current-layer="Capa_1" />
<path
   style="fill:#00f50b;fill-opacity:1"
   d="M 27.062138,91.56957 V 62.529948 h -0.167 c -11.487,0 -20.8330007,-7.52219 -20.8330007,-19.00919 V 27.75514 h -2.953 c -1.3809997,0 -2.49999966,-1.119 -2.49999966,-2.5 0,-1.381 1.11899996,-2.5 2.49999966,-2.5 H 14.229138 V 3.0101401 c 0,-1.381 1.119,-2.50000003 2.5,-2.50000003 1.381,0 2.5,1.11900003 2.5,2.50000003 V 22.75614 h 20.666 V 3.0101401 c 0,-1.381 1.119,-2.50000003 2.5,-2.50000003 1.381,0 2.5,1.11900003 2.5,2.50000003 V 22.75614 h 11.12 c 1.381,0 2.5,1.119 2.5,2.5 0,1.381 -1.119,2.5 -2.5,2.5 h -2.953 v 15.764618 c 0,11.487 -9.346,19.00919 -20.833,19.00919 h -0.167 V 91.56957 c -4.4689,-0.0019 -0.379269,0.0031 -5,0 z m 2.5,-34.039622 h 2.667 c 8.73,0 15.833,-5.27919 15.833,-14.00919 V 27.75514 h -37 v 15.764617 c 0,8.730001 7.103,14.00919 15.833,14.00919 h 2.667 z"
   id="path2"
   sodipodi:nodetypes="ccsscssscsssccssscssscssccccssccsscc" />
</svg>
