<svg width="600" height="628" viewBox="0 0 600 628" fill="none" xmlns="http://www.w3.org/2000/svg">
<path d="M0 27.215C0 18.3785 7.16344 11.215 16 11.215H214.118C217.168 11.215 220.154 10.3435 222.725 8.70302L232.427 2.51202C234.998 0.871564 237.984 0 241.034 0H357.918C361.243 0 364.486 1.03619 367.196 2.96449L374.623 8.25055C377.332 10.1789 380.575 11.215 383.9 11.215H584C592.837 11.215 600 18.3785 600 27.215V611.5C600 620.337 592.837 627.5 584 627.5H194.404C190.954 627.5 187.597 626.385 184.833 624.322L171.53 614.393C168.766 612.33 165.409 611.215 161.96 611.215H16C7.16342 611.215 0 604.052 0 595.215V27.215Z" fill="#2F302F"/>
<path d="M0.5 27.215C0.5 18.6546 7.43959 11.715 16 11.715H214.118C217.263 11.715 220.342 10.8162 222.994 9.12452L232.696 2.93352C235.186 1.34433 238.079 0.5 241.034 0.5H357.918C361.139 0.5 364.281 1.50381 366.906 3.37185L374.333 8.65791C377.127 10.6465 380.471 11.715 383.9 11.715H584C592.56 11.715 599.5 18.6546 599.5 27.215V611.5C599.5 620.061 592.56 627 584 627H194.404C191.062 627 187.81 625.92 185.132 623.922L171.829 613.992C168.979 611.865 165.517 610.715 161.96 610.715H16C7.43957 610.715 0.5 603.775 0.5 595.215V27.215Z" stroke="white" stroke-opacity="0.2"/>
<rect x="189" y="611" width="149" height="11" fill="#C2C2C2"/>
<path d="M519 609H536.185L551 619H519V609Z" fill="#C2C2C2"/>
<path d="M320 622L326 622L341 611L335.6 611L320 622Z" fill="#C2C2C2"/>
<path d="M331 622L337 622L352 611L346.6 611L331 622Z" fill="#C2C2C2"/>
<path d="M342 622L348 622L363 611L357.6 611L342 622Z" fill="#C2C2C2"/>
<path d="M353 622L359 622L374 611L368.6 611L353 622Z" fill="#C2C2C2"/>
<path d="M364 622L370 622L385 611L379.6 611L364 622Z" fill="#C2C2C2"/>
<path d="M375 622L381 622L396 611L390.6 611L375 622Z" fill="#C2C2C2"/>
<path d="M386 622L392 622L407 611L401.6 611L386 622Z" fill="#C2C2C2"/>
<path d="M397 622L403 622L418 611L412.6 611L397 622Z" fill="#C2C2C2"/>
<path d="M408 622L414 622L429 611L423.6 611L408 622Z" fill="#C2C2C2"/>
<path d="M419 622L425 622L440 611L434.6 611L419 622Z" fill="#C2C2C2"/>
<path d="M430 622L436 622L451 611L445.6 611L430 622Z" fill="#C2C2C2"/>
<path d="M441 622L447 622L462 611L456.6 611L441 622Z" fill="#C2C2C2"/>
<path d="M452 622L458 622L473 611L467.6 611L452 622Z" fill="#C2C2C2"/>
<path d="M463 622L469 622L484 611L478.6 611L463 622Z" fill="#C2C2C2"/>
<path d="M474 622L480 622L495 611L489.6 611L474 622Z" fill="#C2C2C2"/>
<path d="M485 622L491 622L506 611L500.6 611L485 622Z" fill="#C2C2C2"/>
<path d="M577 619L559.278 619L544 609L577 609L577 619Z" fill="#C2C2C2"/>
<rect x="241" y="8" width="119" height="4" rx="2" fill="#C2C2C2"/>
</svg>
