<svg width="215" height="215" viewBox="0 0 215 215" fill="none" xmlns="http://www.w3.org/2000/svg">
<path d="M53.7957 113.192C52.6274 113.218 51.4665 113 50.3869 112.553C49.3073 112.105 48.3326 111.438 47.5249 110.594C45.9886 108.937 45.1349 106.762 45.1349 104.502C45.1349 102.243 45.9886 100.067 47.5249 98.4106C55.3076 90.3369 64.6277 83.9026 74.9358 79.4871C85.244 75.0715 96.3318 72.7638 107.546 72.7002C118.806 72.7178 129.948 75.0034 140.307 79.4206C150.665 83.8379 160.027 90.2963 167.835 98.4106C169.498 100.109 170.419 102.399 170.393 104.776C170.368 107.154 169.4 109.424 167.701 111.087C166.002 112.75 163.712 113.67 161.335 113.645C158.958 113.62 156.688 112.651 155.025 110.952C148.881 104.55 141.51 99.4498 133.353 95.9561C125.196 92.4624 116.419 90.6466 107.546 90.6169C98.719 90.6004 89.9784 92.3517 81.8393 95.7673C73.7003 99.1829 66.3276 104.194 60.1561 110.504C59.3264 111.351 58.337 112.024 57.2452 112.486C56.1534 112.947 54.9809 113.187 53.7957 113.192Z" fill="#FF6F00"/>
<path d="M26.9207 85.869C24.5832 85.8831 22.3328 84.9829 20.6499 83.3607C19.8102 82.5279 19.1438 81.5371 18.689 80.4454C18.2342 79.3538 18 78.1829 18 77.0003C18 75.8177 18.2342 74.6468 18.689 73.5551C19.1438 72.4635 19.8102 71.4727 20.6499 70.6399C31.9694 59.0606 45.4852 49.8559 60.406 43.5645C75.3268 37.2732 91.3528 34.0217 107.546 34.0003C123.787 33.9656 139.87 37.1906 154.842 43.4842C169.814 49.7778 183.371 59.012 194.71 70.6399C196.373 72.3386 197.294 74.6285 197.268 77.0057C197.243 79.3829 196.275 81.6528 194.576 83.3159C192.877 84.979 190.587 85.8992 188.21 85.874C185.833 85.8488 183.563 84.8803 181.9 83.1815C172.237 73.2864 160.693 65.4234 147.947 60.0549C135.201 54.6864 121.511 51.9209 107.68 51.9209C93.8496 51.9209 80.1588 54.6864 67.4128 60.0549C54.6668 65.4234 43.123 73.2864 33.4603 83.1815C32.6096 84.0497 31.5911 84.7357 30.4668 85.1977C29.3426 85.6597 28.136 85.8881 26.9207 85.869ZM125.462 180.738C124.277 180.733 123.105 180.493 122.013 180.031C120.921 179.57 119.932 178.897 119.102 178.05L83.2686 142.217C81.6001 140.538 80.6636 138.268 80.6636 135.901C80.6636 133.535 81.6001 131.264 83.2686 129.586C84.1014 128.746 85.0922 128.08 86.1839 127.625C87.2755 127.17 88.4464 126.936 89.629 126.936C90.8116 126.936 91.9825 127.17 93.0742 127.625C94.1659 128.08 95.1566 128.746 95.9894 129.586L131.823 165.419C133.086 166.672 133.948 168.273 134.298 170.018C134.648 171.762 134.47 173.571 133.788 175.215C133.106 176.858 131.949 178.261 130.467 179.245C128.984 180.228 127.242 180.748 125.462 180.738Z" fill="#FF6F00"/>
<path d="M89.629 180.737C87.8497 180.748 86.1076 180.228 84.6248 179.244C83.142 178.261 81.9857 176.858 81.3034 175.215C80.6211 173.571 80.4436 171.762 80.7936 170.017C81.1436 168.273 82.0052 166.672 83.2686 165.419L119.102 129.585C119.935 128.746 120.926 128.079 122.017 127.624C123.109 127.17 124.28 126.936 125.462 126.936C126.645 126.936 127.816 127.17 128.908 127.624C129.999 128.079 130.99 128.746 131.823 129.585C133.491 131.264 134.428 133.534 134.428 135.901C134.428 138.268 133.491 140.538 131.823 142.217L95.9894 178.05C95.1598 178.896 94.1704 179.57 93.0786 180.031C91.9868 180.492 90.8143 180.733 89.629 180.737Z" fill="#FF6F00"/>
</svg>
