<?xml version="1.0" encoding="UTF-8" standalone="no"?>
<svg
   width="128"
   height="128"
   viewBox="0 0 128 128"
   fill="none"
   version="1.1"
   id="svg491"
   sodipodi:docname="ahb.svg"
   inkscape:version="1.2.2 (1:1.2.2+202305151914+b0a8486541)"
   xmlns:inkscape="http://www.inkscape.org/namespaces/inkscape"
   xmlns:sodipodi="http://sodipodi.sourceforge.net/DTD/sodipodi-0.dtd"
   xmlns="http://www.w3.org/2000/svg"
   xmlns:svg="http://www.w3.org/2000/svg">
  <defs
     id="defs495" />
  <sodipodi:namedview
     id="namedview493"
     pagecolor="#ffffff"
     bordercolor="#666666"
     borderopacity="1.0"
     inkscape:showpageshadow="2"
     inkscape:pageopacity="0.0"
     inkscape:pagecheckerboard="0"
     inkscape:deskcolor="#d1d1d1"
     showgrid="false"
     inkscape:zoom="3.0814212"
     inkscape:cx="83.727599"
     inkscape:cy="46.893946"
     inkscape:window-width="1426"
     inkscape:window-height="936"
     inkscape:window-x="0"
     inkscape:window-y="0"
     inkscape:window-maximized="1"
     inkscape:current-layer="svg491" />
  <path
     d="M 28,48 V 16 m 0,32 H 12 C 8,48 4,44 4,40 V 24 c 0,-4 4,-8 8,-8 h 16 m 0,32 h 16 c 4,0 8,-4 8,-8 V 24 c 0,-4 -4,-8 -8,-8 H 28 m 72,32 V 16 m 0,32 h 16 c 4,0 8,-4 8,-8 V 24 c 0,-4 -4,-8 -8,-8 h -16 m 0,32 H 84 c -4,0 -8,-4 -8,-8 V 24 c 0,-4 4,-8 8,-8 h 16 m -8,80 c 16,0 16,-24 16,-32 M 36,96 C 20,96 20,72 20,64 m 40,16 c -4,0 -8,4 -8,8 v 16 c 0,4 4,8 8,8 h 8 c 4,0 8,-4 8,-8 V 88 c 0,-4 -4,-8 -8,-8 z"
     stroke="#cccccc"
     stroke-linecap="round"
     stroke-linejoin="round"
     id="path489"
     style="stroke-width:8" />
</svg>
