<?xml version="1.0" encoding="UTF-8" standalone="no"?>
<svg
   width="128"
   height="128"
   viewBox="0 0 128 128"
   fill="none"
   version="1.1"
   id="svg616"
   sodipodi:docname="ams.svg"
   inkscape:version="1.2.2 (1:1.2.2+202305151914+b0a8486541)"
   xmlns:inkscape="http://www.inkscape.org/namespaces/inkscape"
   xmlns:sodipodi="http://sodipodi.sourceforge.net/DTD/sodipodi-0.dtd"
   xmlns="http://www.w3.org/2000/svg"
   xmlns:svg="http://www.w3.org/2000/svg">
  <defs
     id="defs620" />
  <sodipodi:namedview
     id="namedview618"
     pagecolor="#ffffff"
     bordercolor="#666666"
     borderopacity="1.0"
     inkscape:showpageshadow="2"
     inkscape:pageopacity="0.0"
     inkscape:pagecheckerboard="0"
     inkscape:deskcolor="#d1d1d1"
     showgrid="false"
     inkscape:zoom="2.3738528"
     inkscape:cx="8.0038662"
     inkscape:cy="79.406777"
     inkscape:window-width="1426"
     inkscape:window-height="936"
     inkscape:window-x="0"
     inkscape:window-y="0"
     inkscape:window-maximized="1"
     inkscape:current-layer="svg616" />
  <path
     d="m 88.00012,24 v 56 m 0,-56 H 63.99988 m 24.00024,0 h 16 c 4.0016,0 8.0016,4 8,8 v 40 c 0,4 -3.9984,8 -8,8 h -16 m 0,0 H 63.99988 m -24,-56 v 56 m 0,-56 h 24 m -24,0 h -16 c -4.00008,0 -8,4 -8,8 0,12.88232 0,37.08232 0,40 0,4 3.99992,8 8,8 4.00008,0 8.04552,0 16,0 m 0,0 h 24 m 0,0 V 24 m -48,80 h 96.00024"
     stroke="#cccccc"
     stroke-linecap="round"
     stroke-linejoin="round"
     id="path614"
     style="stroke-width:8" />
</svg>
