<?xml version="1.0" encoding="UTF-8" standalone="no"?>
<svg
   width="128"
   height="128"
   viewBox="0 0 128 128"
   fill="none"
   version="1.1"
   id="svg741"
   sodipodi:docname="ap-board.svg"
   inkscape:version="1.2.2 (1:1.2.2+202305151914+b0a8486541)"
   xmlns:inkscape="http://www.inkscape.org/namespaces/inkscape"
   xmlns:sodipodi="http://sodipodi.sourceforge.net/DTD/sodipodi-0.dtd"
   xmlns="http://www.w3.org/2000/svg"
   xmlns:svg="http://www.w3.org/2000/svg">
  <defs
     id="defs745" />
  <sodipodi:namedview
     id="namedview743"
     pagecolor="#ffffff"
     bordercolor="#666666"
     borderopacity="1.0"
     inkscape:showpageshadow="2"
     inkscape:pageopacity="0.0"
     inkscape:pagecheckerboard="0"
     inkscape:deskcolor="#d1d1d1"
     showgrid="false"
     inkscape:zoom="2.7564453"
     inkscape:cx="-52.966768"
     inkscape:cy="13.967264"
     inkscape:window-width="1426"
     inkscape:window-height="936"
     inkscape:window-x="0"
     inkscape:window-y="0"
     inkscape:window-maximized="1"
     inkscape:current-layer="svg741" />
  <path
     d="m 64,12 v 16 m 36,16 h 16 m -16,20 h 16 m -16,20 h 16 M 84,28 V 12 M 44,28 V 12 M 28,44 H 12 M 28,64 H 12 M 28,84 H 12 m 32,16 v 16 m 20,-16 v 16 m 20,-16 v 16 M 76,44 c 4,0 8,4 8,8 v 24 c 0,4 -4,8 -8,8 H 52 c -4,0 -8,-4 -8,-8 V 52 c 0,-4 4,-8 8,-8 z"
     stroke="#cccccc"
     stroke-linecap="round"
     stroke-linejoin="round"
     id="path739"
     style="stroke-width:8" />
</svg>
