<?xml version="1.0" encoding="UTF-8" standalone="no"?>
<!-- Generator: Adobe Illustrator 28.0.0, SVG Export Plug-In . SVG Version: 6.00 Build 0)  -->

<svg
   version="1.1"
   id="svg6"
   x="0px"
   y="0px"
   viewBox="0 0 128 128"
   style="enable-background:new 0 0 128 128;"
   xml:space="preserve"
   sodipodi:docname="bedlevel.svg"
   inkscape:version="1.3.2 (1:1.3.2+202311252150+091e20ef0f)"
   xmlns:inkscape="http://www.inkscape.org/namespaces/inkscape"
   xmlns:sodipodi="http://sodipodi.sourceforge.net/DTD/sodipodi-0.dtd"
   xmlns="http://www.w3.org/2000/svg"
   xmlns:svg="http://www.w3.org/2000/svg"><defs
   id="defs1" />
<style
   type="text/css"
   id="style1">
	.st0{fill:none;stroke:#CCCCCC;stroke-width:8;stroke-linecap:round;stroke-linejoin:round;}
	.st1{fill:none;stroke:#CCCCCC;stroke-width:8;}
	.st2{fill:none;stroke:#CCCCCC;stroke-width:8;stroke-linecap:round;}
</style>
<sodipodi:namedview
   bordercolor="#666666"
   borderopacity="1.0"
   id="namedview8"
   inkscape:current-layer="svg6"
   inkscape:cx="60.908346"
   inkscape:cy="102.51054"
   inkscape:deskcolor="#d1d1d1"
   inkscape:pagecheckerboard="0"
   inkscape:pageopacity="0.0"
   inkscape:showpageshadow="2"
   inkscape:window-height="936"
   inkscape:window-maximized="1"
   inkscape:window-width="1430"
   inkscape:window-x="0"
   inkscape:window-y="0"
   inkscape:zoom="5.8530566"
   pagecolor="#ffffff"
   showgrid="false">
	</sodipodi:namedview>
<path
   id="path2"
   class="st0"
   d="M 88,84 64,108 40,84 m 48,0 H 40 m 48,0 h 4 c 4,0 8,-4 8,-8 V 20 c 0,-4 -4,-8 -8,-8 H 36 c -4,0 -8,4 -8,8 v 56 c 0,4 4,8 8,8 h 4" />
<circle
   id="circle4"
   class="st1"
   cx="64"
   cy="64"
   r="20" />

<path
   style="fill:none;stroke:#cccccc;stroke-width:8;stroke-linecap:butt;stroke-linejoin:miter;stroke-dasharray:none;stroke-opacity:1"
   d="m 9.0510795,118.77526 c 5.0531825,0 17.4228245,-8.98236 27.4744595,-8.98236 10.051635,0 18.199077,8.98236 27.47446,8.98236 9.275383,0 17.698519,-8.98236 27.474461,-8.98236 9.77594,0 19.81986,8.98236 27.47446,8.98236"
   id="path1"
   sodipodi:nodetypes="czzzc" /></svg>
