<svg xmlns="http://www.w3.org/2000/svg" xmlns:xlink="http://www.w3.org/1999/xlink" width="109.9" height="106.78" viewBox="0 0 109.9 106.78">
  <defs>
    <clipPath id="clip-Web_1920_2">
      <rect width="109.9" height="106.78"/>
    </clipPath>
  </defs>
  <g id="Web_1920_2" data-name="Web 1920 – 2" clip-path="url(#clip-Web_1920_2)">
    <path id="PolarCloudLogo_Blu" d="M142.731,210.452H117.069a28.585,28.585,0,0,1-27.928-21.5,28.81,28.81,0,0,1,24.378-35.806.852.852,0,0,0,.845-.811,28.775,28.775,0,0,1,56.837-.068c.1.676.406.811,1.014.913,9.264,1.319,16.432,5.917,21.132,13.964,5.139,8.757,5.579,17.988,1.082,27.049-4.8,9.771-12.882,15.418-23.871,16.162-5.68.372-11.394.135-17.075.135C149.9,210.452,146.315,210.452,142.731,210.452Zm-8.047-32.526c-.034-.271-.034-.44-.068-.642a17.932,17.932,0,0,0-11.394-16.06,19.152,19.152,0,0,0-10.143-.642,21.445,21.445,0,0,0,4.091,42.535q25.866,0,51.731-.034a20.087,20.087,0,0,0,4.024-.44,21.611,21.611,0,0,0,17.007-21.031,20.894,20.894,0,0,0-10.076-18.123,20.108,20.108,0,0,0-12.578-3.212c-1.116.068-2.232.237-3.381.372.1-1.048.27-2.029.3-3.009a21.015,21.015,0,0,0-7.1-16.737,20.656,20.656,0,0,0-16.8-5.41,21.556,21.556,0,0,0-18.6,17.041c-.135.575-.068.845.642,1.014q15.418,4.108,18.934,19.678a42.492,42.492,0,0,1,.541,4.7Z" transform="translate(-88.139 -116.293)" fill="#ccc"/>
  </g>
</svg>
