<?xml version="1.0" encoding="UTF-8" standalone="no"?>
<!-- Generator: Adobe Illustrator 27.9.0, SVG Export Plug-In . SVG Version: 6.00 Build 0)  -->

<svg
   version="1.1"
   x="0px"
   y="0px"
   viewBox="0 0 128.00001 128"
   xml:space="preserve"
   id="svg2"
   sodipodi:docname="console_gcode.svg"
   width="128"
   height="128"
   inkscape:version="1.3.2 (1:1.3.2+202311252150+091e20ef0f)"
   xmlns:inkscape="http://www.inkscape.org/namespaces/inkscape"
   xmlns:sodipodi="http://sodipodi.sourceforge.net/DTD/sodipodi-0.dtd"
   xmlns="http://www.w3.org/2000/svg"
   xmlns:svg="http://www.w3.org/2000/svg"><defs
   id="defs2">
	

	

	
</defs><sodipodi:namedview
   id="namedview2"
   pagecolor="#ffffff"
   bordercolor="#666666"
   borderopacity="1.0"
   inkscape:showpageshadow="2"
   inkscape:pageopacity="0.0"
   inkscape:pagecheckerboard="0"
   inkscape:deskcolor="#d1d1d1"
   inkscape:zoom="3.5990498"
   inkscape:cx="87.106324"
   inkscape:cy="91.968718"
   inkscape:window-width="1430"
   inkscape:window-height="936"
   inkscape:window-x="0"
   inkscape:window-y="0"
   inkscape:window-maximized="1"
   inkscape:current-layer="g2"
   showguides="false" />
<style
   type="text/css"
   id="style1">
	.st0{fill:none;stroke:#CCCCCC;stroke-width:60;stroke-linejoin:round;stroke-miterlimit:10;}
	.st1{fill:none;stroke:#CCCCCC;stroke-width:60;stroke-linecap:round;stroke-linejoin:round;stroke-miterlimit:10;}
</style>



<g
   id="g2"
   transform="translate(-51,-52.999917)"><path
     id="path2"
     class="st0"
     d="M 142.65789,144.65788 115,172.31576 87.342114,144.65788 m 55.315776,0 H 87.342114 m 55.315776,0 h 4.60965 c 4.60964,0 9.21929,-4.60964 9.21929,-9.2193 V 70.903532 c 0,-4.609648 -4.60965,-9.219295 -9.21929,-9.219295 H 82.732467 c -4.609648,0 -9.219295,4.609647 -9.219295,9.219295 v 64.535048 c 0,4.60966 4.609647,9.2193 9.219295,9.2193 h 4.609647"
     style="fill:none;stroke:#cccccc;stroke-width:8;stroke-linecap:round;stroke-linejoin:round;stroke-dasharray:none" /><path
     style="fill:none;stroke:#cccccc;stroke-width:8;stroke-linecap:round;stroke-linejoin:miter;stroke-dasharray:none;stroke-opacity:1"
     d="m 129.94217,85.439557 c -0.44583,-2.242627 -4.88536,-9.620832 -13.29875,-9.620832 -8.41339,0 -17.770608,9.46017 -19.017824,17.132623 -1.247216,7.672452 -1.239436,19.168522 3.573984,26.780102 3.43112,5.42569 10.30088,9.15441 15.06457,9.0577 4.76369,-0.0967 8.37652,-1.45306 10.6277,-2.6076 2.25118,-1.15454 3.22095,-2.75262 3.22095,-2.75262 v -17.64861 h -14.45174"
     id="path1"
     sodipodi:nodetypes="czzszzccc" /></g></svg>
