<?xml version="1.0" encoding="UTF-8"?><svg id="Layer_1" xmlns="http://www.w3.org/2000/svg" viewBox="0 0 339.98 340.37"><defs><style>.cls-1{fill:#545654;stroke:#231f20;stroke-miterlimit:10;}.cls-2{fill:#e53525;stroke-width:0px;}</style></defs><path class="cls-1" d="M336.37,202.22c-8.6,43-30.5,77.1-65,103.4-15.5,11.8-32.5,20.7-51,26.4-9.4,2.9-19.2,5.1-29.2,6.1-8.4.9-16.8,2-25.3,1.7-13.8-.6-27.3-2.9-40.7-6.5-29.5-8-54.6-23.1-76-44.7-19.2-19.5-32.6-42.4-41.1-68.6C.37,196.22-1.03,171.82,1.97,147.62c4.4-35.6,19.5-67,44.3-93.4,16.1-17.1,34.7-30.5,56.1-39.9,11.8-5.2,24.2-8.8,37-11.2C156.77-.18,174.17.02,191.47,1.62c13.7,1.2,27.1,5.1,39.8,10.2,33.5,13.4,60.5,35.1,80.3,65.4,9.8,14.9,16.9,31,21.7,48.3,4.5,16.2,6.4,32.6,6.2,49.2,0,9-1.1,18.1-3.1,27.5"/><path class="cls-2" d="M263.75,175.09c0-11.6-1.3-22.6-5.3-33.1-1.1-3-.3-4.9,2-6.8,2.5-2,4.8-4.2,7.2-6.2,2.3-1.9,4-1.7,5.3,1.4,6.8,16.6,10.4,33.9,8.3,51.7-5.3,44.6-28.9,76.1-70.3,93.8-2.8,1.2-5.7,2.1-8.6,2.8-2.6.7-3.3,2-2.4,4.5,1,2.7,1.4,5.6,1.5,8.5.1,3-1.1,4.5-4.3,2.9-10.8-5.5-21.6-11-32.4-16.5-3.8-2-4-3.6-1-6.6,8.5-8.2,17.1-16.4,25.7-24.6,1.1-1,2.3-2,3.8-1.5s1.4,2,1.6,3.3c.8,3.9,1.7,7.9,2.6,12.5,19.8-5.6,35.1-16.6,47.2-32.3,12.1-15.7,18.5-33.5,19.1-53.8Z"/><path class="cls-2" d="M210.15,69.99c8.1,3,15.4,6.7,22.2,11.4,2.9,2,4.9,1.7,6.8-1.2,1.3-1.9,2.9-3.6,4.5-5.3,2.3-2.6,4.3-2.4,5.2.8,1.8,6.2,3.3,12.6,4.9,18.8,1.1,4.2,2.1,8.4,3.4,12.5.5,1.7.8,3.3.9,5.1.2,3.3-1.4,4.5-4.5,4.2-4.9-.6-9.8-1-14.7-1.8-6.7-1-13.6-.1-20.3-1.6-4.8-1.1-5.2-2.1-2.1-5.8,1.7-2.1,3.4-4.3,5.3-6.3,2.2-2.3,1.7-3.8-.8-5.5-6.7-4.4-13.9-7.7-21.5-10.2-16.3-5.5-33.1-6.1-49.6-2.1-19.6,4.7-36.3,14.9-49.2,30.7-3,3.7-5.7,4.3-9.5,1.9-2-1.2-4-2.3-6.2-3.1-3.8-1.4-3.7-3.4-1.5-6.2,8-10.3,17.3-19,28.3-26.1,18.7-12.1,39.5-17.8,61.6-17.7,12.6,0,24.8,2.8,36.8,7.5Z"/><path class="cls-2" d="M123.75,272.19c-21.6-10.5-37.8-26.3-49.3-47-8.8-15.9-12.3-33.2-13.5-51-.2-3.4-1.4-4.6-4.6-4.8-2.6-.1-5.2-.4-7.8-1-3.2-.7-4-3-1.7-5.3,8.7-8.7,17.5-17.3,26.2-26,2.3-2.3,4.3-2.2,5.8.9,5.2,11.1,10.4,22.2,15.7,33.3,1.6,3.3.2,4.2-2.8,4.2-2.8,0-5.5-.5-8.1-1.3-3.1-.9-4.4-.2-4.7,3.4-.5,5.8,1.1,11.3,2.4,16.7,2.9,12,8,23.1,15.4,33.2,11.2,15.5,26.1,26.1,43.8,32.7,2.9,1.1,3.8,2.6,3.8,5.3,0,3,0,6,.7,9.1.9,3.8-.5,5.3-4.4,4.2-5.8-1.7-11.4-3.5-16.9-6.6Z"/></svg>