<?xml version="1.0" encoding="utf-8"?>
<!-- Generator: Adobe Illustrator 27.9.1, SVG Export Plug-In . SVG Version: 6.00 Build 0)  -->
<svg version="1.1" id="Layer_1" xmlns="http://www.w3.org/2000/svg" xmlns:xlink="http://www.w3.org/1999/xlink" x="0px" y="0px"
	 viewBox="0 0 542.05 470.18" style="enable-background:new 0 0 542.05 470.18;" xml:space="preserve">
<style type="text/css">
	.st0{fill:#A8A9AC;}
	.st1{fill:#A8A9AC;stroke:#A8A9AC;stroke-miterlimit:10;}
</style>
<g id="b5OK0N.tif">
	<g>
		<path class="st0" d="M267.07,452.56c-50.49,0-100.99-0.09-151.48,0.05c-14.72,0.04-28.15-3.67-39.99-12.36
			c-18.4-13.51-27.35-31.98-27.46-54.68c-0.13-28.26-0.1-56.52-0.01-84.78c0.05-14.7,10.36-24.36,24.43-23.18
			c9.86,0.82,18.48,9.48,19.2,19.31c0.17,2.29,0.26,4.59,0.26,6.89c0.02,26.94,0.04,53.89,0,80.83
			c-0.02,9.79,3.45,17.65,12.64,21.86c3.26,1.49,7.15,2.23,10.76,2.23c101.21,0.12,202.41,0.06,303.62,0.13
			c13.65,0.01,23.57-9.68,23.46-24.22c-0.22-27.71,0-55.42-0.1-83.13c-0.03-9.72,3.53-17.27,12.31-21.82
			c13.41-6.95,30.27,2.5,31.39,17.5c0.15,2.07,0.25,4.15,0.25,6.23c-0.08,29.24,0.2,58.49-0.41,87.72
			c-0.35,16.76-7.55,31.05-19.51,42.8c-10.4,10.22-22.99,16.17-37.38,18.19c-3.66,0.51-7.43,0.41-11.15,0.41
			C367.62,452.57,317.35,452.56,267.07,452.56z"/>
		<path class="st1" d="M289.2,89.45c0,2.02,0,3.28,0,4.54c0,67.46-0.02,134.92,0.02,202.37c0,6.55-1.1,12.65-5.79,17.57
			c-6.42,6.73-14.28,8.94-23.03,6.01c-8.84-2.96-14.03-9.34-14.87-18.86c-0.17-1.96-0.25-3.93-0.25-5.9
			c-0.01-67.02-0.01-134.04-0.01-201.06c0-1.28,0-2.56,0-3.83c-0.5-0.39-1-0.78-1.51-1.16c-0.52,1.07-0.81,2.38-1.61,3.19
			c-15.32,15.5-30.67,30.97-46.09,46.37c-10.38,10.36-24.99,9.73-33.92-1.33c-5.95-7.37-6.1-18.74-0.29-26.23
			c1.2-1.55,2.52-3.03,3.91-4.42c27.93-27.98,55.87-55.95,83.81-83.91c11.02-11.02,24.26-11.05,35.23-0.07
			c28.18,28.2,56.35,56.39,84.51,84.61c8.2,8.22,9.84,18.13,4.69,27.48c-6.35,11.55-21.8,14.79-32.31,6.74
			c-1.47-1.13-2.85-2.4-4.16-3.72c-15.15-15.2-30.28-30.42-45.42-45.63C291.39,91.46,290.59,90.76,289.2,89.45z"/>
	</g>
</g>
</svg>
