<?xml version="1.0" encoding="utf-8"?>
<!-- Generator: Adobe Illustrator 27.9.3, SVG Export Plug-In . SVG Version: 9.03 Build 53313)  -->
<svg version="1.1" id="Layer_1" xmlns="http://www.w3.org/2000/svg" xmlns:xlink="http://www.w3.org/1999/xlink" x="0px" y="0px"
	 viewBox="0 0 58 53" style="enable-background:new 0 0 58 53;" xml:space="preserve">
<style type="text/css">
	.st0{opacity:0.68;fill:#95E595;enable-background:new    ;}
	.st1{display:none;fill:none;stroke:#6CEA7B;stroke-width:1.5;stroke-linecap:round;stroke-miterlimit:10;}
</style>
<g>
	<path class="st0" d="M55.2,25.3c1.2-0.3,1.4-1.1,0.5-1.9l-25-21.9c-0.9-0.8-2.4-0.8-3.4,0l-25,21.9c-0.9,0.8-0.7,1.7,0.5,1.9l3,0.6
		C7,26.2,8,27.4,8,28.7V49c0,1.2,1,2.2,2.2,2.2h10.6c1.2,0,2.2-1,2.2-2.2v-9.8c0-1.2,1-2.2,2.2-2.2h7.1c1.2,0,2.2,1,2.2,2.2V49
		c0,1.2,1,2.2,2.2,2.2h10.9c1.2,0,2.2-1,2.2-2.2V28.7c0-1.2,1-2.5,2.2-2.7L55.2,25.3z"/>
	<path class="st1" d="M55.2,25.3c1.2-0.3,1.4-1.1,0.5-1.9l-25-21.9c-0.9-0.8-2.4-0.8-3.4,0l-25,21.9c-0.9,0.8-0.7,1.7,0.5,1.9l3,0.6
		C7,26.2,8,27.4,8,28.7V49c0,1.2,1,2.2,2.2,2.2h10.6c1.2,0,2.2-1,2.2-2.2v-9.8c0-1.2,1-2.2,2.2-2.2h7.1c1.2,0,2.2,1,2.2,2.2V49
		c0,1.2,1,2.2,2.2,2.2h10.9c1.2,0,2.2-1,2.2-2.2V28.7c0-1.2,1-2.5,2.2-2.7L55.2,25.3z"/>
</g>
</svg>
