<?xml version="1.0" encoding="utf-8"?>
<!-- Generator: Adobe Illustrator 28.1.0, SVG Export Plug-In . SVG Version: 6.00 Build 0)  -->
<svg version="1.1" id="Layer_1" xmlns="http://www.w3.org/2000/svg" xmlns:xlink="http://www.w3.org/1999/xlink" x="0px" y="0px"
	 viewBox="0 0 340 340.4" style="enable-background:new 0 0 340 340.4;" xml:space="preserve">
<style type="text/css">
	.st0{fill:#545654;stroke:#231F20;stroke-miterlimit:10;}
	.st1{fill:#231F20;}
</style>
<path class="st0" d="M336.4,202.2c-8.6,43-30.5,77.1-65,103.4c-15.5,11.8-32.5,20.7-51,26.4c-9.4,2.9-19.2,5.1-29.2,6.1
	c-8.4,0.9-16.8,2-25.3,1.7c-13.8-0.6-27.3-2.9-40.7-6.5c-29.5-8-54.6-23.1-76-44.7C30,269.1,16.6,246.1,8.1,220
	C0.4,196.2-1,171.8,2,147.6c4.4-35.6,19.5-67,44.3-93.4C62.4,37.1,81,23.7,102.4,14.3c11.8-5.2,24.2-8.8,37-11.2
	c17.4-3.3,34.8-3.1,52.1-1.5c13.7,1.2,27.1,5.1,39.8,10.2c33.5,13.4,60.5,35.1,80.3,65.4c9.8,14.9,16.9,31,21.7,48.3
	c4.5,16.2,6.4,32.6,6.2,49.2C339.5,183.6,338.4,192.8,336.4,202.2"/>
<path class="st1" d="M118.5,239.4c-20.7-15.7-32.6-36.1-35-61.7c-2.7-28.9,7-53.3,28-73.2c4.3-4.1,9.4-7.5,14.5-10.7
	c6-3.7,13.2-1.9,16.5,3.6c3.5,5.8,1.7,12.7-4.5,16.5c-16.7,10.2-26.6,24.9-30.4,44.1c-5.6,28.2,10.7,58.6,37.6,69.6
	c32.9,13.4,68.2-0.5,83.2-32.6c13.1-28.3,2.3-63.8-24.5-80c-8-4.8-10.1-13.1-4.9-19c3.7-4.3,9.4-5.4,14.7-2.5
	c13.2,7.3,23.5,17.7,31.3,30.5c8.6,14.2,12.9,29.7,12.5,46.3c-1.1,42.1-29.4,76.8-71,84.7C161.9,259.5,139.2,254,118.5,239.4z"/>
<path class="st1" d="M166.3,149.1c-5.6-2.3-7.7-6.3-7.7-12c0.1-21.8,0.2-43.5,0-65.3c-0.1-6.5,4.1-12.2,11.6-12.6
	c6.6-0.3,11.6,5.2,11.6,12.5v65.6C181.8,146.3,175.5,151.2,166.3,149.1L166.3,149.1z"/>
</svg>
