<?xml version="1.0" encoding="utf-8"?>
<!-- Generator: Adobe Illustrator 28.1.0, SVG Export Plug-In . SVG Version: 6.00 Build 0)  -->
<svg version="1.1" id="Layer_1" xmlns="http://www.w3.org/2000/svg" xmlns:xlink="http://www.w3.org/1999/xlink" x="0px" y="0px"
	 viewBox="0 0 56 56" style="enable-background:new 0 0 56 56;" xml:space="preserve">
<style type="text/css">
	.st0{fill:#19B24B;}
</style>
<g>
	<g>
		<path class="st0" d="M48.5,28c0.3,0,0.5-0.2,0.5-0.5c-0.1-4-1.3-7.9-3.5-11.2c-2.3-3.5-5.6-6.1-9.4-7.7C32.2,7,28,6.6,23.9,7.4
			s-7.8,2.8-10.8,5.7s-4.9,6.7-5.7,10.8S7,32.2,8.6,36c1.6,3.8,4.3,7.1,7.7,9.4c3.3,2.2,7.2,3.4,11.2,3.5c0.3,0,0.5-0.2,0.5-0.5
			v-2.2c0-0.3-0.2-0.5-0.5-0.5c-3.3-0.1-6.6-1.1-9.4-3c-2.9-2-5.2-4.7-6.5-8c-1.3-3.2-1.7-6.8-1-10.3c0.7-3.4,2.4-6.6,4.9-9.1
			s5.6-4.2,9.1-4.9c3.4-0.7,7-0.3,10.3,1c3.2,1.3,6,3.6,8,6.5c1.9,2.8,2.9,6,3,9.4c0,0.3,0.2,0.5,0.5,0.5H48.5z"/>
		<path class="st0" d="M47.8,35.6c-0.2,0.2-0.6,0.2-0.8,0l-6.9-8.4c-0.3-0.3,0-0.8,0.4-0.8h13.7c0.4,0,0.7,0.5,0.4,0.8L47.8,35.6z"
			/>
	</g>
</g>
</svg>
