<?xml version="1.0" encoding="utf-8"?>
<!-- Generator: Adobe Illustrator 27.9.1, SVG Export Plug-In . SVG Version: 6.00 Build 0)  -->
<svg version="1.1" id="Layer_1" xmlns="http://www.w3.org/2000/svg" xmlns:xlink="http://www.w3.org/1999/xlink" x="0px" y="0px"
	 viewBox="0 0 667.32 674.1" style="enable-background:new 0 0 667.32 674.1;" xml:space="preserve">
<style type="text/css">
	.st0{fill:#CCCCCB;}
	.st1{fill:#CCCCCB;stroke:#BCBEC0;stroke-miterlimit:10;}
</style>
<path class="st0" d="M568.64,176.59c-0.37-6.01,0.16-2.2-0.45-27.74c-0.15-6.35-0.22-8.07-0.89-10.74
	c-1.58-6.24-4.69-10.57-6.26-12.53c-3.24-4.04-6.55-6.2-9.4-8.05c-3.62-2.36-6.87-4.48-11.63-5.37c-1.79-0.33-4.35-0.37-9.4-0.45
	c-3.21-0.05-4.82-0.07-8.05,0c-8.19,0.18-377.39-3.33-394.19,0c-3.66,0.72-7.16,1.79-7.16,1.79c-0.85,0.26-6.17,1.88-9.4,3.58
	c-9.18,4.85-12.64,16.33-14.32,21.92c-1.25,4.15-1.8,7.77-2.24,12.53c-0.76,8.25-1.2,20.1,0.45,34.9c-0.01,0-0.02,0-0.02,0
	s111.48-0.77,232.68-0.89c85.4-0.09,160.57,0.17,240.24,0.89c0.01,0,0.02,0,0.03,0C569.3,186.34,568.81,179.42,568.64,176.59z"/>
<path class="st0" d="M225.28,112.11c6.44,0,12.88,0,19.32,0c6.52,0,9.78,0,9.78,0c3.61,0.42,5.51,1.12,6.68,0
	c1.37-1.3-0.02-3.39,0.24-6.92c0.5-6.75,6.48-11.26,7.39-11.93c0.21-0.16,4.88-3.5,9.78-3.58c0.15,0,0.23,0,3.82,0
	c0,0,0.78,0,4.77,0c5.13,0,81.43-0.59,90.41,0c1.02,0.07,2.91,0.26,5.72,0.24c2.23-0.02,2.63-0.16,3.82,0
	c2.05,0.27,3.46,1.03,5.49,2.15c2.68,1.47,4.47,2.46,5.96,4.53c0.26,0.36,1.11,1.59,1.91,4.29c1.6,5.43-0.81,8.64,0.95,10.5
	c1.36,1.43,4.04,0.92,5.25,0.72c14.6-2.46,26.94,5.54,31.01,0c1.15-1.56,0.68-4.54-0.24-10.5c-1.33-8.53-4.04-14.64-4.77-16.22
	c-1.45-3.16-4.44-9.52-10.73-15.98c-2.48-2.54-8.21-7.91-16.94-11.69c-3.24-1.4-5.86-2.13-8.55-2.89c-2.8-0.78-8.22-2.15-16.69-2.97
	c-3.87-0.38-6.81-0.49-16.94-0.56c-10.72-0.08-16.08-0.12-24.56,0c-12.73,0.18-10.77,0.39-23.15,0.56c-11.5,0.16-14.07,0-20.33,0.56
	c-4,0.36-10.74,1.13-13.83,1.48c-4.29,0.49-6.44,0.68-7.87,0.95c-7.67,1.47-11.5,2.21-15.51,3.82c-8.08,3.25-13.19,8.21-16.22,11.21
	c-8.26,8.18-11.71,16.62-12.4,18.37c-2.83,7.15-3.48,13.52-3.58,17.65V112.11z"/>
<path class="st1" d="M115.39,211.11l22.63,164.43c16.71,127.09,30.17,223.67,32.22,229.1c2.66,7.06,7.16,8.95,7.16,8.95
	c2.97,0.05,6.59,0.07,10.74,0c3.29-0.05,5.7-0.14,6.13-0.16c15.4-0.54,129.92,0.7,129.92,0.7c58.74,0.64,48.77-0.71,65.33,0.31
	c23.41,1.44,47.04-1.66,70.36,0.86c6.27,0.68,24.17,2.81,29.72-5.87c0.35-0.55,0.61-1.07,1.96-6.26
	c3.44-13.24,5.08-22.29,5.08-22.29c2.11-11.65,3.25-20.41,3.25-20.41c3.34-25.81,4.69-38.74,6.16-50.92
	c4.5-37.12,28.73-205.37,42.2-298.45C403.96,211.11,259.68,211.11,115.39,211.11z M261.09,534.09c-2.1,5.77-2.66,6.65-2.66,6.65
	c-1.08,1.7-3.15,3.7-7.51,4.97c-8.22,2.54-9.32,2.54-9.32,2.54c-6.19-0.01-10.79-5.51-11.86-6.78c-2.71-3.23-3.78-6.58-4.24-8.47
	l-20.25-241.24c-0.09-1.4-0.06-3.67,0.89-6.2c2.3-6.17,8.02-8.53,8.86-8.86c3.38-1.33,6.4-1.09,8.86-0.89
	c1.61,0.13,3.91,0.32,6.2,1.33c5.53,2.44,7.77,8.27,8.42,10.19l23.04,242.34C261.38,531.13,261.23,532.61,261.09,534.09z
	 M351.3,535.9c-2.5,5.61-3.12,6.44-3.12,6.44c-1.2,1.62-3.4,3.47-7.83,4.43c-8.38,1.96-9.47,1.89-9.47,1.89
	c-6.17-0.44-10.38-6.25-11.36-7.59c-2.48-3.41-3.31-6.83-3.63-8.75l-3.37-242.07c0.01-1.41,0.2-3.67,1.32-6.13
	c2.73-6,8.59-7.95,9.46-8.22c3.47-1.09,6.46-0.64,8.9-0.27c1.6,0.24,3.88,0.59,6.09,1.76c5.35,2.82,7.18,8.79,7.69,10.75
	l6.08,243.35C351.8,532.97,351.55,534.43,351.3,535.9z M439.04,533.43c-0.43,1.42-0.85,2.84-1.28,4.26
	c-3.17,5.27-3.88,6.02-3.88,6.02c-1.38,1.46-3.8,3.03-8.32,3.44c-8.56,0.93-9.63,0.72-9.63,0.72c-6.07-1.19-9.55-7.47-10.35-8.91
	c-2.04-3.69-2.46-7.19-2.54-9.12l26.16-240.67c0.18-1.4,0.65-3.62,2.05-5.92c3.44-5.62,9.5-6.84,10.39-7.01
	c3.57-0.66,6.49,0.16,8.87,0.82c1.55,0.44,3.78,1.06,5.83,2.49c4.97,3.45,6.05,9.6,6.32,11.61L439.04,533.43z"/>
<path class="st1" d="M314.69,286.43"/>
</svg>
