<?xml version="1.0" encoding="UTF-8" standalone="no"?>
<!-- Generator: Adobe Illustrator 27.9.0, SVG Export Plug-In . SVG Version: 6.00 Build 0)  -->

<svg
   version="1.1"
   x="0px"
   y="0px"
   viewBox="0 0 128.00001 128"
   xml:space="preserve"
   id="svg2"
   sodipodi:docname="vibcomp.svg"
   width="128"
   height="128"
   inkscape:version="1.3.2 (1:1.3.2+202311252150+091e20ef0f)"
   xmlns:inkscape="http://www.inkscape.org/namespaces/inkscape"
   xmlns:sodipodi="http://sodipodi.sourceforge.net/DTD/sodipodi-0.dtd"
   xmlns="http://www.w3.org/2000/svg"
   xmlns:svg="http://www.w3.org/2000/svg"><defs
   id="defs2">
	

	

	
</defs><sodipodi:namedview
   id="namedview2"
   pagecolor="#ffffff"
   bordercolor="#666666"
   borderopacity="1.0"
   inkscape:showpageshadow="2"
   inkscape:pageopacity="0.0"
   inkscape:pagecheckerboard="0"
   inkscape:deskcolor="#d1d1d1"
   inkscape:zoom="2.6164391"
   inkscape:cx="55.99213"
   inkscape:cy="71.853382"
   inkscape:window-width="1430"
   inkscape:window-height="936"
   inkscape:window-x="0"
   inkscape:window-y="0"
   inkscape:window-maximized="1"
   inkscape:current-layer="svg2"
   showguides="false" />
<style
   type="text/css"
   id="style1">
	.st0{fill:none;stroke:#CCCCCC;stroke-width:60;stroke-linejoin:round;stroke-miterlimit:10;}
	.st1{fill:none;stroke:#CCCCCC;stroke-width:60;stroke-linecap:round;stroke-linejoin:round;stroke-miterlimit:10;}
</style>
<path
   id="polyline1"
   style="fill:none;stroke:#cccccc;stroke-width:8;stroke-linejoin:round;stroke-miterlimit:10;stroke-dasharray:none"
   class="st0"
   d="M 3.9999304,23.038275 12.504056,36.866697 4.282356,50.235873 12.692339,63.911214 3.9999304,78.0458 12.629579,92.078334 4.706621,104.96172" />
<path
   id="polyline2"
   style="fill:none;stroke:#cccccc;stroke-width:8;stroke-linejoin:round;stroke-miterlimit:10;stroke-dasharray:none"
   class="st0"
   d="m 124.00007,23.039375 -8.50429,13.828009 8.22184,13.36878 -8.41013,13.674934 8.69258,14.134166 -8.62981,14.032106 7.92434,12.88302" />

<g
   id="g2"
   transform="translate(-51,-52.999917)"><path
     id="path2"
     class="st0"
     d="m 139,143 -24,24 -24,-24 m 48,0 H 91 m 48,0 h 4 c 4,0 8,-4 8,-8 V 79 c 0,-4 -4,-8 -8,-8 H 87 c -4,0 -8,4 -8,8 v 56 c 0,4 4,8 8,8 h 4"
     style="fill:none;stroke:#cccccc;stroke-width:8;stroke-linecap:round;stroke-linejoin:round" /><circle
     id="circle4"
     class="st1"
     cx="115"
     cy="119"
     r="20"
     style="fill:none;stroke:#cccccc;stroke-width:8" /></g></svg>
