<svg width="73" height="56" viewBox="0 0 73 56" fill="none" xmlns="http://www.w3.org/2000/svg">
<path d="M5.41016 21.45C13.1102 13.76 23.7402 9 35.4802 9C47.2202 9 57.8502 13.76 65.5502 21.45" stroke="#545654" stroke-width="4.5" stroke-miterlimit="10" stroke-linecap="round"/>
<path d="M17.4399 33.4798C22.0599 28.8598 28.4299 26.0098 35.4799 26.0098C42.5199 26.0098 48.8999 28.8698 53.5199 33.4798" stroke="#00AE42" stroke-width="4.5" stroke-miterlimit="10" stroke-linecap="round"/>
<path d="M41.2701 46.351C41.6707 45.9589 41.6735 45.3092 41.232 44.9638C39.66 43.7338 37.6707 43 35.5 43C33.3293 43 31.34 43.7338 29.768 44.9638C29.3265 45.3092 29.3293 45.9589 29.7299 46.351L34.8004 51.3151C35.1892 51.6957 35.8108 51.6957 36.1996 51.3151L41.2701 46.351Z" fill="#00AE42"/>
</svg>
